<?xml version="1.0" standalone="no"?>
<!DOCTYPE svg PUBLIC "-//W3C//DTD SVG 20010904//EN"
 "http://www.w3.org/TR/2001/REC-SVG-20010904/DTD/svg10.dtd">
<svg version="1.0" xmlns="http://www.w3.org/2000/svg"
 width="600.000000pt" height="600.000000pt" viewBox="0 0 600.000000 600.000000"
 preserveAspectRatio="xMidYMid meet">
<metadata>
Created by potrace 1.11, written by Peter Selinger 2001-2013
</metadata>
<g transform="translate(0.000000,600.000000) scale(0.100000,-0.100000)"
fill="#000000" stroke="none">
<path d="M3815 5040 c-140 -30 -222 -71 -342 -172 -247 -207 -340 -284 -443
-368 -64 -52 -183 -151 -265 -220 -81 -69 -165 -138 -185 -155 -55 -44 -119
-97 -261 -215 -69 -58 -156 -130 -194 -160 -38 -30 -89 -73 -115 -95 -26 -22
-88 -74 -140 -115 -51 -41 -176 -145 -279 -230 -373 -310 -525 -435 -557 -460
-30 -23 -212 -171 -259 -212 -11 -9 -78 -64 -150 -123 -362 -296 -417 -351
-451 -456 -15 -44 -15 -59 -5 -93 6 -23 29 -107 50 -188 22 -87 48 -162 62
-183 40 -58 216 -137 824 -370 139 -53 346 -146 567 -254 221 -108 283 -125
433 -118 131 6 264 48 363 115 39 26 288 234 554 462 266 228 525 451 577 495
371 317 495 424 702 600 128 110 265 232 304 270 38 39 165 149 280 245 225
187 331 275 409 343 27 23 75 63 107 88 99 80 323 275 354 309 25 26 14 21
-65 -29 -52 -34 -97 -61 -101 -61 -4 0 -11 18 -17 40 l-10 40 112 74 c61 41
124 86 140 99 l30 24 -13 59 c-7 32 -18 88 -26 124 -8 36 -19 92 -24 124 -20
115 -62 150 -272 231 -153 59 -169 65 -294 110 -66 23 -217 79 -335 123 -118
44 -278 104 -355 133 -77 29 -162 60 -190 70 -27 9 -68 25 -90 34 -131 57
-170 67 -280 70 -60 2 -128 0 -150 -5z m332 -489 c159 -60 184 -73 181 -94 -4
-26 -68 -59 -127 -64 -39 -4 -70 5 -201 57 -153 61 -209 93 -179 104 40 15
102 24 171 25 62 1 92 -5 155 -28z m-1210 -565 l27 -24 -33 -142 c-18 -78 -31
-143 -29 -145 2 -2 110 -13 240 -25 236 -21 237 -21 340 -64 l103 -43 400 129
c395 127 459 142 504 119 47 -26 47 -84 -1 -115 -19 -12 -646 -218 -907 -298
-55 -17 -85 -38 -233 -161 -110 -92 -164 -143 -156 -148 7 -4 79 -10 159 -14
118 -6 153 -11 178 -26 41 -25 42 -70 3 -125 -295 -408 -286 -398 -348 -413
-59 -15 -126 3 -168 44 -32 32 -19 66 74 190 49 65 87 121 85 124 -3 2 -108
10 -234 16 -217 11 -233 14 -285 39 l-55 27 -163 -70 c-489 -209 -687 -290
-721 -296 -45 -9 -122 17 -137 45 -18 33 -11 68 20 103 22 26 64 49 167 92 76
31 313 131 526 221 l389 164 196 -81 c108 -45 205 -84 214 -86 10 -3 31 6 47
20 l29 24 -201 83 c-111 45 -205 85 -209 89 -5 4 57 61 137 128 l144 121 -42
6 c-23 3 -105 11 -181 18 -119 10 -143 15 -165 34 l-26 22 43 188 c25 113 49
195 60 207 26 30 71 46 129 47 41 0 58 -5 80 -24z m839 -115 c73 -33 92 -85
54 -146 -92 -148 -430 -153 -430 -5 0 115 241 212 376 151z m1644 -91 c6 -10
13 -39 16 -63 l6 -44 -108 -92 c-60 -50 -117 -91 -126 -91 -24 0 -38 31 -38
84 0 50 -2 47 140 169 70 60 93 68 110 37z m-405 -289 c-109 -102 -181 -152
-267 -185 -170 -66 -454 -139 -628 -161 -137 -18 -462 -35 -650 -34 l-135 0
35 31 36 30 139 4 c77 1 192 8 255 13 63 6 171 16 240 22 273 24 617 119 890
248 93 43 99 45 85 32z m-2169 -679 c7 -4 -89 -92 -249 -227 -677 -571 -1059
-893 -1132 -958 -44 -39 -90 -79 -101 -90 -21 -17 -24 -18 -54 -2 -26 14 -29
19 -19 31 20 24 342 302 684 589 170 143 417 351 549 463 214 180 244 202 276
202 19 0 40 -4 46 -8z m-1779 -1301 c185 -77 191 -80 213 -103 28 -30 27 -78
-1 -78 -11 0 -95 28 -186 62 -176 67 -183 72 -183 139 0 40 17 38 157 -20z
m651 -298 c66 -42 102 -77 102 -100 0 -31 -18 -29 -99 11 -67 34 -81 49 -81
87 0 25 40 26 78 2z"/>
</g>
</svg>
